<svg xmlns="http://www.w3.org/2000/svg" enable-background="new 0 0 25 25" viewBox="0 0 25 25"><path fill="#583689" d="M4.622,16.895c-1.043,0-2.057-0.407-2.887-1.229C0.939,14.876,0.5,13.851,0.5,12.777c-0.001-1.212,0.533-2.384,1.544-3.389L7.44,4.026c0.292-0.292,0.769-0.29,1.061,0.004s0.29,0.769-0.004,1.061l-5.396,5.362C2.38,11.169,1.999,11.973,2,12.776c0,0.68,0.273,1.311,0.791,1.823c1.155,1.144,2.829,1.026,4.174-0.29c0.007-0.007,0.014-0.015,0.021-0.021l7.112-7.066c0.294-0.291,0.769-0.291,1.061,0.004c0.292,0.294,0.29,0.769-0.004,1.061l-7.088,7.042c-0.007,0.008-0.015,0.016-0.022,0.023C7.012,16.377,5.798,16.895,4.622,16.895z"/><path fill="#583689" d="M4.825,13.171c-0.193,0-0.386-0.074-0.532-0.222c-0.292-0.294-0.29-0.769,0.004-1.061l7.59-7.533c2.15-2.137,5.652-2.137,7.803,0c0.294,0.292,0.296,0.767,0.004,1.061s-0.767,0.296-1.061,0.004c-1.568-1.559-4.121-1.559-5.689,0l-7.59,7.533C5.207,13.099,5.017,13.171,4.825,13.171z"/><path fill="#DE002A" d="M17.03,21.188c-0.192,0-0.386-0.074-0.532-0.222c-0.292-0.294-0.29-0.769,0.004-1.061l5.396-5.36c0.721-0.717,1.103-1.52,1.102-2.323c0-0.679-0.274-1.31-0.792-1.821c-1.159-1.15-2.846-1.025-4.193,0.312l-7.112,7.065c-0.294,0.292-0.769,0.29-1.061-0.004s-0.29-0.769,0.004-1.061l7.112-7.065c1.947-1.936,4.54-2.062,6.307-0.313c0.796,0.789,1.234,1.814,1.235,2.887c0.001,1.212-0.533,2.384-1.545,3.389l-5.396,5.36C17.412,21.116,17.222,21.188,17.03,21.188z"/><path fill="#DE002A" d="M9.209,22.247c-1.413,0-2.825-0.533-3.901-1.602l1.056-1.065c1.57,1.559,4.122,1.558,5.69,0.001l7.592-7.534c0.294-0.293,0.769-0.289,1.061,0.004c0.292,0.294,0.29,0.769-0.004,1.061l-7.592,7.534C12.035,21.713,10.622,22.247,9.209,22.247z"/></svg>